<?xml version="1.0" encoding="UTF-8"?>
<svg id="Layer_1" data-name="Layer 1" xmlns="http://www.w3.org/2000/svg" viewBox="0 0 413.41 195.08">
  <defs>
    <style>
      .cls-1 {
        stroke: #000;
        stroke-miterlimit: 10;
        stroke-width: 3px;
      }
    </style>
  </defs>
  <path class="cls-1" d="m37.13,83.68v-30.17h.27c2.27,0,4.14.86,5.6,2.59,1.41,1.82,2.12,4.26,2.12,7.3v30.99c0,8.96,1.37,15.63,4.1,20,3.05,4.91,8.03,7.37,14.95,7.37h1.3v1.71h-1.57c-9.1-.09-15.81-2.34-20.13-6.76-.46,2.37-1.05,4.6-1.77,6.69l-.68,1.77c-.18.45-.27.73-.27.82-2.46,5.91-6.05,10.67-10.78,14.27-2.37,1.82-5.01,3.34-7.92,4.57-1.46.59-3,1.14-4.64,1.64-2.87.82-5.67,1.07-8.4.75-2.64-.32-4.5-.82-5.6-1.5-1.5-.96-2.23-2.14-2.18-3.55,0-1,.43-1.84,1.3-2.52.73-.64,1.62-.89,2.66-.75.96.09,1.77.55,2.46,1.37.59.73.82,1.64.68,2.73-.14,1.05-.71,1.89-1.71,2.53,3.14.68,6.3.52,9.49-.48,5.28-1.82,9.4-4.46,12.35-7.92,5.6-6.55,8.4-18.36,8.4-35.42v-3.96c-.05-.96-.07-1.93-.07-2.94v-11.12h.07Z"/>
  <path class="cls-1" d="m89.21,121.76v1.71h-24.57v-1.71h24.57Z"/>
  <path class="cls-1" d="m113.1,121.76v1.71h-24.57v-1.71h24.57Z"/>
  <path class="cls-1" d="m136.98,121.76v1.71h-24.57v-1.71h24.57Z"/>
  <path class="cls-1" d="m160.87,121.76v1.71h-24.57v-1.71h24.57Z"/>
  <path class="cls-1" d="m184.76,121.76v1.71h-24.57v-1.71h24.57Z"/>
  <path class="cls-1" d="m208.65,121.76v1.71h-24.57v-1.71h24.57Z"/>
  <path class="cls-1" d="m232.54,121.76v1.71h-24.57v-1.71h24.57Z"/>
  <path class="cls-1" d="m256.43,121.76v1.71h-24.57v-1.71h24.57Z"/>
  <path class="cls-1" d="m280.32,121.76v1.71h-24.57v-1.71h24.57Z"/>
  <path class="cls-1" d="m304.21,121.76v1.71h-24.57v-1.71h24.57Z"/>
  <path class="cls-1" d="m328.57,113.16c-.68,1.14-1.43,2.16-2.25,3.07-4.28,4.73-11.13,7.14-20.54,7.23h-2.25v-1.71h1.98c6.92,0,11.9-2.46,14.95-7.37,2.73-4.37,4.1-11.03,4.1-20v-31.19c0-3,.68-5.39,2.05-7.17,1.41-1.64,3.28-2.46,5.6-2.46h.41v40.82c0,8.96,1.36,15.63,4.1,20,3.05,4.91,8.03,7.37,14.95,7.37h1.3v1.71h-1.57c-9.42-.09-16.27-2.5-20.54-7.23-.82-.91-1.57-1.93-2.25-3.07Zm-3.79,16.07c.93.93,1.4,2.1,1.4,3.51,0,1.27-.47,2.38-1.4,3.31-.93.93-2.06,1.4-3.38,1.4s-2.51-.47-3.45-1.4-1.4-2.04-1.4-3.31c0-1.41.47-2.58,1.4-3.51.93-.93,2.08-1.4,3.45-1.4s2.45.47,3.38,1.4Zm13.72-.07c.93.98,1.4,2.13,1.4,3.45s-.47,2.51-1.4,3.45c-.93.93-2.11,1.4-3.52,1.4-1.32,0-2.43-.47-3.34-1.4-.91-.93-1.37-2.08-1.37-3.45s.45-2.47,1.37-3.45c.91-.98,2.02-1.47,3.34-1.47,1.41,0,2.58.49,3.52,1.47Z"/>
  <path class="cls-1" d="m373.69,53.58c2.32,0,4.19.82,5.6,2.46,1.37,1.77,2.05,4.16,2.05,7.17v31.6c0,9.69-2.09,16.84-6.28,21.43-4.28,4.73-11.13,7.14-20.54,7.23h-2.25v-1.71h1.98c6.92,0,11.9-2.46,14.95-7.37,2.73-4.37,4.1-11.03,4.1-20v-40.82h.41Zm-11.77-13.48c.93.98,1.4,2.11,1.4,3.38,0,1.41-.47,2.58-1.4,3.52s-2.06,1.4-3.38,1.4c-1.41,0-2.58-.47-3.52-1.4-.93-.93-1.4-2.1-1.4-3.52,0-1.27.47-2.4,1.4-3.38.93-.98,2.1-1.47,3.52-1.47,1.32,0,2.45.49,3.38,1.47Zm6.83-12.63c.93.98,1.4,2.13,1.4,3.45,0,1.41-.47,2.58-1.4,3.52-.93.93-2.11,1.4-3.52,1.4-1.27,0-2.38-.47-3.31-1.4-.93-.93-1.4-2.1-1.4-3.52,0-1.32.47-2.47,1.4-3.45.93-.98,2.04-1.47,3.31-1.47,1.41,0,2.58.49,3.52,1.47Zm6.83,12.63c.93.98,1.4,2.11,1.4,3.38,0,1.41-.47,2.58-1.4,3.52-.93.93-2.08,1.4-3.45,1.4s-2.45-.47-3.38-1.4c-.93-.93-1.4-2.1-1.4-3.52,0-1.27.46-2.4,1.4-3.38.93-.98,2.06-1.47,3.38-1.47s2.51.49,3.45,1.47Z"/>
  <path class="cls-1" d="m385.91,21.09v-.75h3.62v-3.89c.18-9.96,4.32-14.95,12.42-14.95,3.28,0,5.8.84,7.58,2.53,1.59,1.59,2.39,3.6,2.39,6.01,0,1.5-.23,2.75-.68,3.75-.68,1.23-1.57,1.84-2.66,1.84-.59,0-1.12-.18-1.57-.55-.46-.5-.68-1.02-.68-1.57s.23-1.05.68-1.5c.45-.41.98-.61,1.57-.61.91,0,1.59.52,2.05,1.57.23-.18.34-1.16.34-2.94,0-2.23-.66-4-1.98-5.32-1.59-1.59-3.94-2.39-7.03-2.39s-5.32,1.46-6.83,4.37c-1.18,2.41-1.77,5.67-1.77,9.76v3.89h18.56v.75h-26Zm9.08,102.38V25.59h.41c4.96,0,7.44,3.07,7.44,9.21v88.66h-7.85Z"/>
  <path class="cls-1" d="m57.96,190.29v-.96h5.35v-5.93c.25-14.63,6.38-21.94,18.39-21.94,4.74,0,8.42,1.24,11.05,3.71,2.4,2.29,3.59,5.24,3.59,8.83,0,2.14-.37,3.96-1.11,5.47-.89,1.89-2.19,2.83-3.9,2.83-.84,0-1.57-.31-2.18-.92-.64-.64-.96-1.38-.96-2.22,0-.89.32-1.64.96-2.26.61-.64,1.34-.96,2.18-.96,1.45,0,2.47.79,3.06,2.37.41-.28.61-1.72.61-4.32,0-3.29-1.02-5.93-3.06-7.91-2.35-2.24-5.76-3.36-10.25-3.36s-7.82,2.09-10.02,6.27c-1.89,3.59-2.83,8.45-2.83,14.57v5.77h27.49v.96h-38.38Z"/>
  <path class="cls-1" d="m108.49,135.47v38.54c0,5.02.76,8.75,2.29,11.2,1.71,2.75,4.5,4.13,8.37,4.13h1.11v.96h-1.26c-5.28-.05-9.11-1.4-11.51-4.05-2.34-2.57-3.52-6.58-3.52-12v-33.37c0-1.68.38-3.02,1.15-4.01.79-.92,1.83-1.38,3.13-1.38h.23Z"/>
  <path class="cls-1" d="m165.99,174c0,5.02.76,8.75,2.29,11.2,1.71,2.75,4.5,4.13,8.37,4.13h.73v.96h-.88c-5.28-.05-9.11-1.4-11.51-4.05-.28-.31-.54-.62-.76-.96-.25.48-.55.93-.88,1.34-1.89,2.45-4.65,3.67-8.3,3.67-2.88,0-5.12-1.04-6.73-3.13-1.89,2.09-4.47,3.13-7.76,3.13s-5.72-1.27-7.3-3.82c-2.4,2.5-6.18,3.77-11.35,3.82h-2.03v-.96h1.87c3.87,0,6.66-1.38,8.37-4.13,1.53-2.45,2.29-6.18,2.29-11.2v-19.08h.23c1.3,0,2.34.47,3.13,1.41.79.99,1.19,2.32,1.19,3.98v13.92c0,5.12-1.05,8.98-3.13,11.58,1.25,2.47,3.2,3.71,5.85,3.71,4.87,0,7.3-3.78,7.3-11.35l-.08-25h.23c1.3,0,2.34.5,3.14,1.49.76.99,1.15,2.33,1.15,4.01v18.85c0,3.82-.85,6.86-2.56,9.1,1.3,1.94,3.1,2.91,5.39,2.91,4.82,0,7.23-3.78,7.23-11.35v-27.03h.23c1.3,0,2.34.5,3.13,1.49.76.99,1.15,2.31,1.15,3.94v17.43Z"/>
  <path class="cls-1" d="m191.19,184.29c-.41.71-.88,1.36-1.41,1.95-2.4,2.65-6.23,4-11.51,4.05h-1.26v-.96h1.11c3.87,0,6.66-1.38,8.37-4.13,1.5-2.4,2.27-6.03,2.29-10.9-.03-.56-.04-1.12-.04-1.68,0-6.29,1.61-11.39,4.82-15.29,3.42-4.13,8.17-6.19,14.26-6.19s10.92,2.06,14.34,6.19c3.13,3.8,4.74,8.74,4.82,14.83v1.84c0,5.02.76,8.75,2.29,11.2,1.71,2.75,4.5,4.13,8.37,4.13h.73v.96h-.88c-5.28-.05-9.11-1.4-11.51-4.05-.54-.59-1.01-1.25-1.41-1.99-.82,1.61-1.85,3.03-3.1,4.28l-1.11.99c-3.26,2.7-7.44,4.05-12.54,4.05s-9.2-1.35-12.46-4.05l-1.03-.92c-1.25-1.25-2.29-2.69-3.13-4.32Zm2.03-10.05h.04v.76c.43,11.83,5.29,17.74,14.57,17.74,9.76,0,14.64-6.63,14.64-19.88,0-6.4-1.27-11.44-3.82-15.14-2.57-3.77-6.18-5.66-10.82-5.66s-8.18,1.94-10.78,5.81c-2.55,3.75-3.82,8.84-3.82,15.29v1.07Z"/>
  <path class="cls-1" d="m249.98,135.47c1.3,0,2.34.46,3.14,1.38.76.99,1.15,2.33,1.15,4.01v33.37c0,5.43-1.17,9.43-3.52,12-2.4,2.65-6.23,4-11.51,4.05h-1.26v-.96h1.11c3.87,0,6.66-1.38,8.37-4.13,1.53-2.45,2.29-6.18,2.29-11.2v-38.54h.23Z"/>
  <path class="cls-1" d="m259.65,190.29v-54.82h.23c2.78,0,4.17,1.72,4.17,5.16v49.66h-4.4Z"/>
</svg>