<?xml version="1.0" ?><svg id="Слой_1" style="enable-background:new 0 0 512 512;" version="1.1" viewBox="0 0 512 512" xml:space="preserve" xmlns="http://www.w3.org/2000/svg" xmlns:xlink="http://www.w3.org/1999/xlink"><style type="text/css">
	.st0{fill:#EBF2FF;}
	.st1{fill:#FFF7C3;}
	.st2{fill:#FFD6C6;}
	.st3{fill:none;stroke:#000000;stroke-width:12;stroke-miterlimit:10;}
</style><g><rect class="st0" height="108.2" width="280.7" x="172.6" y="341.5"/><rect class="st1" height="108.2" width="280.7" x="172.6" y="220.5"/><polygon class="st2" points="455.5,208.1 170.4,208.1 170.4,153.7 280.8,75.1 455.5,75.1  "/><polygon class="st3" points="426.2,79.2 426.2,459.9 113.7,459.9 113.7,157.8 234.8,79.2  "/><polygon class="st3" points="426.2,212.1 113.7,212.1 113.7,157.8 234.8,79.2 426.2,79.2  "/><line class="st3" x1="113.7" x2="426.2" y1="337.1" y2="337.1"/><line class="st3" x1="259.9" x2="280.1" y1="145.6" y2="145.6"/><line class="st3" x1="259.9" x2="280.1" y1="274.6" y2="274.6"/><line class="st3" x1="259.9" x2="280.1" y1="399.6" y2="399.6"/><line class="st3" x1="113.7" x2="78.4" y1="459.9" y2="459.9"/><line class="st3" x1="39.8" x2="60" y1="459.9" y2="459.9"/></g></svg>